<?xml version="1.0" encoding="UTF-8" standalone="no"?>
<!-- Created with Inkscape (http://www.inkscape.org/) -->

<svg
   xmlns:dc="http://purl.org/dc/elements/1.1/"
   xmlns:cc="http://creativecommons.org/ns#"
   xmlns:rdf="http://www.w3.org/1999/02/22-rdf-syntax-ns#"
   xmlns:svg="http://www.w3.org/2000/svg"
   xmlns="http://www.w3.org/2000/svg"
   xmlns:sodipodi="http://sodipodi.sourceforge.net/DTD/sodipodi-0.dtd"
   xmlns:inkscape="http://www.inkscape.org/namespaces/inkscape"
   width="800"
   height="400"
   viewBox="0 0 211.66667 105.83333"
   version="1.1"
   id="svg8"
   inkscape:version="0.92.4 (5da689c313, 2019-01-14)"
   sodipodi:docname="eth.svg">
  <defs
     id="defs2" />
  <sodipodi:namedview
     id="base"
     pagecolor="#ffffff"
     bordercolor="#666666"
     borderopacity="1.0"
     inkscape:pageopacity="0.0"
     inkscape:pageshadow="2"
     inkscape:zoom="0.7"
     inkscape:cx="358.66017"
     inkscape:cy="-62.463703"
     inkscape:document-units="mm"
     inkscape:current-layer="layer1"
     showgrid="false"
     fit-margin-top="0"
     fit-margin-left="0"
     fit-margin-right="0"
     fit-margin-bottom="0"
     units="px"
     inkscape:window-width="1600"
     inkscape:window-height="837"
     inkscape:window-x="-8"
     inkscape:window-y="-8"
     inkscape:window-maximized="1" />
  <metadata
     id="metadata5">
    <rdf:RDF>
      <cc:Work
         rdf:about="">
        <dc:format>image/svg+xml</dc:format>
        <dc:type
           rdf:resource="http://purl.org/dc/dcmitype/StillImage" />
        <dc:title></dc:title>
      </cc:Work>
    </rdf:RDF>
  </metadata>
  <g
     inkscape:label="Layer 1"
     inkscape:groupmode="layer"
     id="layer1"
     transform="translate(-34.303261,-70.126403)">
    <g
       id="g1047"
       transform="matrix(0.25688083,0,0,0.25688083,107.26663,91.435665)"
       style="fill:#888d8f;fill-opacity:1;stroke-width:3.89285564">
      <g
         transform="translate(0,510.2581)"
         id="g1033"
         style="fill:#888d8f;fill-opacity:1;stroke-width:3.89285564">
        <path
           style="fill:#888d8f;fill-opacity:1;stroke-width:3.89285564"
           d="m -93.255116,-333.12662 c 16.05946,-22.63479 29.15633,-41.19035 29.10417,-41.23458 -0.0522,-0.0442 -13.07267,7.59624 -28.93444,16.97884 -15.861774,9.3826 -29.028104,17.11395 -29.258504,17.18077 -0.30594,0.0887 -49.03687,-28.40509 -57.90353,-33.85719 -0.75388,-0.46356 -0.87947,-0.48427 -0.74049,-0.1221 0.23807,0.62041 58.17022,82.21713 58.36924,82.21236 0.0905,-0.002 13.30409,-18.52332 29.363554,-41.1581 z"
           id="path1014"
           inkscape:connector-curvature="0" />
        <path
           style="fill:#888d8f;fill-opacity:1;stroke-width:3.89285564"
           d="m -93.122076,-368.27247 c 15.96366,-9.44544 28.99141,-17.26494 28.95055,-17.37667 -0.20942,-0.57276 -58.306644,-96.80983 -58.444534,-96.81241 -0.25144,-0.005 -58.51651,96.76967 -58.40967,97.01453 0.18722,0.42906 58.31371,34.66051 58.59292,34.50614 0.15725,-0.0869 13.34708,-7.88616 29.310734,-17.33159 z"
           id="path1012"
           inkscape:connector-curvature="0" />
      </g>
      <g
         style="fill:#888d8f;fill-opacity:1;stroke-width:2.82838798"
         transform="matrix(1.3763514,0,0,1.3763514,15.06608,664.55416)"
         id="g1029">
        <path
           style="fill:#888d8f;fill-opacity:1;stroke-width:2.82838798"
           d="m 225.70766,-363.39564 c 3.18725,-0.52196 6.08145,-2.40523 8.27448,-5.38422 l 1.1481,-1.5596 v 2.72025 c 0,2.15993 0.0902,2.81992 0.43789,3.20411 0.54454,0.60172 1.3539,0.62043 1.98869,0.046 0.4582,-0.41467 0.48384,-1.25532 0.48384,-15.85999 v -15.42212 l -0.58804,-0.41188 c -0.75287,-0.52732 -1.23462,-0.52051 -1.83853,0.026 -0.44553,0.4032 -0.48401,0.99516 -0.48602,7.47448 -0.003,9.84423 -0.47762,13.41687 -2.25329,16.96205 -1.79457,3.58294 -4.63278,5.28826 -8.80081,5.28788 -1.98589,-1.8e-4 -2.52508,-0.10461 -3.89269,-0.75387 -1.64271,-0.77987 -3.44744,-2.48866 -4.23325,-4.00825 -1.30736,-2.5282 -1.30093,-2.46746 -1.44804,-13.66505 -0.13091,-9.96473 -0.17073,-10.65662 -0.64357,-11.17865 -0.63899,-0.70548 -1.32927,-0.70756 -2.0307,-0.006 -0.54227,0.54226 -0.54888,0.70284 -0.44979,10.91406 l 0.10056,10.3637 0.71155,2.13741 c 1.64362,4.9373 4.81877,8.00606 9.29018,8.97886 2.01898,0.43926 2.31383,0.44866 4.22944,0.13496 z"
           id="path1010"
           inkscape:connector-curvature="0" />
        <path
           style="fill:#888d8f;fill-opacity:1;stroke-width:10.68997002"
           d="m -221.76562,-1766.3574 c -1.05241,0.012 -2.11959,0.047 -3.20313,0.1074 -12.05968,0.6681 -19.89804,3.3672 -29.24609,10.0703 -26.12875,18.7361 -34.37131,55.4378 -19.07813,84.9473 4.47266,8.6304 17.18403,21.8444 25.01563,26.0039 13.51721,7.1792 30.75252,8.3652 46.98828,3.2363 12.88796,-4.0713 25.59324,-13.887 30.11133,-23.2637 2.09782,-4.3537 0.46932,-8.2773 -3.4375,-8.2773 -2.04866,0 -4.49701,1.874 -10.27149,7.8613 -9.27473,9.6167 -16.88493,13.6163 -29.00976,15.2481 -15.27119,2.0551 -28.98355,-2.3185 -39.39649,-12.5664 -8.18755,-8.0578 -12.94399,-17.4456 -16.10742,-31.793 l -0.60742,-2.75 h 52.49609 52.4961 l 1.63867,-2.5 c 1.28341,-1.9587 1.48913,-3.7456 0.94726,-8.25 -1.16364,-9.6728 -2.57163,-14.3641 -7.24804,-24.1602 -3.66664,-7.6808 -5.89998,-10.8199 -12.14844,-17.0683 -11.77441,-11.7744 -24.15335,-17.0265 -39.93945,-16.8457 z m 0.32617,10.8242 c 22.60021,0 42.46306,18.5481 46.85351,43.75 l 0.56641,3.25 h -47.83789 -47.83789 l 0.89453,-5.25 c 1.2737,-7.4702 8.03256,-20.7173 13.74414,-26.9395 8.82614,-9.6151 20.61841,-14.8105 33.61719,-14.8105 z"
           transform="matrix(0.26458333,0,0,0.26458333,34.303261,70.126403)"
           id="path1008"
           inkscape:connector-curvature="0" />
        <path
           id="path1002"
           style="fill:#888d8f;fill-opacity:1;stroke-width:2.82838798"
           d="m 88.551081,-382.53635 c 0,-2.14347 1.90021,-6.02077 4.0073,-8.17676 3.80089,-3.88911 9.492079,-4.73467 14.311809,-2.12637 1.70469,0.92252 4.1974,3.58171 5.1775,5.52327 0.7143,1.415 1.6388,4.29254 1.6388,5.10076 0,0.20956 -3.56499,0.29254 -12.56771,0.29254 H 88.551081 Z m 17.880109,18.23212 c 3.18535,-1.01293 5.67415,-2.7973 7.74058,-5.54968 1.02399,-1.36392 0.64217,-2.80859 -0.74232,-2.80859 -0.5102,0 -1.12739,0.49357 -2.46769,1.97342 -2.21125,2.44149 -4.51787,3.68655 -7.68122,4.14618 -5.695239,0.8275 -10.611249,-1.86578 -13.289179,-7.2806 -0.73533,-1.48686 -1.25394,-2.94326 -1.35316,-3.79993 l -0.16084,-1.38907 h 13.754179 c 16.08908,0 14.82749,0.2496 14.53701,-2.87608 -0.39251,-4.22307 -2.10725,-7.8356 -5.17623,-10.90503 -3.07089,-3.07133 -6.34027,-4.46588 -10.48409,-4.472 -4.773299,-0.007 -9.150349,2.2005 -12.054289,6.07951 -2.31026,3.08599 -3.36949,6.01113 -3.59494,9.92773 -0.29345,5.09773 1.42692,9.58625 5.07142,13.23163 2.34858,2.34915 4.5029,3.59271 7.34735,4.24114 2.372229,0.5408 5.893249,0.3273 8.553419,-0.51863 z"
           inkscape:connector-curvature="0" />
        <path
           id="path998"
           style="fill:#888d8f;fill-opacity:1;stroke-width:2.82838798"
           d="m 166.07399,-382.40406 c 0,-0.91246 0.8473,-3.36024 1.78279,-5.15024 1.29659,-2.481 3.27367,-4.41145 5.79345,-5.65679 2.00673,-0.99178 2.12037,-1.01495 4.97774,-1.01495 2.64819,0 3.07316,0.0698 4.50321,0.73939 0.86849,0.40666 2.18723,1.19855 2.93052,1.75975 2.34535,1.77074 4.53665,5.55968 5.04156,8.7172 l 0.17378,1.08679 h -12.60152 c -12.0059,0 -12.60153,-0.0227 -12.60153,-0.48115 z m 16.08461,18.58158 c 3.90953,-0.80593 7.22288,-2.84969 9.35572,-5.77086 1.17985,-1.61593 0.92614,-3.06916 -0.53581,-3.06916 -0.47506,0 -1.1534,0.54172 -2.47674,1.97789 -1.39708,1.51621 -2.26647,2.19529 -3.72462,2.9093 -7.55187,3.69795 -16.1258,-0.39483 -18.29803,-8.73464 -0.7285,-2.79692 -2.297,-2.50255 13.33432,-2.50255 15.62703,0 14.57097,0.1613 14.57097,-2.22553 0,-3.8696 -1.95503,-8.21175 -5.14697,-11.43141 -3.19473,-3.2225 -6.36659,-4.59931 -10.59574,-4.59931 -4.24029,0 -7.41638,1.37946 -10.58333,4.59665 -2.31799,2.35474 -3.18257,3.75453 -4.20944,6.81533 -3.57026,10.64175 4.08035,22.28738 14.73779,22.43366 0.84286,0.0116 2.4502,-0.16815 3.57188,-0.39937 z"
           inkscape:connector-curvature="0" />
        <path
           style="fill:#888d8f;fill-opacity:1;stroke-width:2.82838798"
           d="m 16.365144,-364.36913 c 0.45754,-0.41407 0.48385,-1.22688 0.48385,-14.94896 v -14.51107 h 3.88177 c 3.240727,0 3.961677,-0.0723 4.365627,-0.43789 0.63044,-0.57054 0.6138,-1.28425 -0.0453,-1.94336 -0.48051,-0.48051 -0.88195,-0.52917 -4.365627,-0.52917 h -3.83646 v -5.50333 c 0,-3.92759 -0.0909,-5.59424 -0.3175,-5.82084 -0.45398,-0.45398 -1.54308,-0.39182 -2.10906,0.12039 -0.43855,0.39687 -0.48385,0.94193 -0.48385,5.82083 v 5.38295 h -3.51301 c -3.9382695,0 -4.6890795,0.24812 -4.6890795,1.54959 0,1.25742 0.33577,1.36083 4.4185395,1.36083 h 3.78355 v 14.36092 c 0,12.56953 0.0514,14.43427 0.41187,14.94895 0.48773,0.69633 1.34092,0.75991 2.01469,0.15016 z"
           id="path996"
           inkscape:connector-curvature="0" />
        <path
           style="fill:#888d8f;fill-opacity:1;stroke-width:2.82838798"
           d="m 44.247451,-364.84165 c 0.37051,-0.56547 0.41547,-1.79161 0.36139,-9.85573 -0.0671,-10.00659 -0.0156,-10.49948 1.41581,-13.55934 1.53936,-3.29052 4.445,-5.37645 8.23498,-5.91181 5.7165,-0.8075 10.08322,2.89862 11.0155,9.34906 0.13559,0.93826 0.24894,5.81954 0.25188,10.84729 0.004,6.75104 0.0883,9.22437 0.32282,9.45885 0.52625,0.52627 1.72728,0.37729 2.18104,-0.27054 0.60671,-0.86619 0.60743,-18.30759 0,-21.31739 -1.59401,-7.90985 -8.10173,-12.55496 -15.07771,-10.76223 -3.02588,0.77761 -5.94951,2.77309 -7.74067,5.28328 l -0.56638,0.79375 -0.008,-15.94114 c -0.007,-15.58259 -0.0194,-15.95305 -0.53665,-16.47031 -0.63683,-0.63683 -1.01604,-0.66164 -1.79321,-0.11729 l -0.58804,0.41188 v 29.03624 c 0,22.23097 0.0744,29.11066 0.3175,29.35375 0.55452,0.55452 1.74782,0.37725 2.21013,-0.32832 z"
           id="path994"
           inkscape:connector-curvature="0" />
        <path
           style="fill:#888d8f;fill-opacity:1;stroke-width:2.82838798"
           d="m 136.7752,-364.65885 c 0.35565,-0.39536 0.4332,-1.7196 0.53062,-9.06198 0.0946,-7.1271 0.19243,-8.86784 0.57169,-10.1698 1.50129,-5.15378 4.80337,-8.45197 9.56831,-9.55703 1.00237,-0.23247 1.97239,-0.54705 2.15556,-0.69907 0.59285,-0.49202 0.39777,-1.74447 -0.34777,-2.23298 -0.59245,-0.38819 -0.89286,-0.40664 -2.3151,-0.14215 -3.03173,0.56381 -6.0656,2.46805 -8.45662,5.30787 l -1.11519,1.32451 -0.13229,-3.08504 c -0.12853,-2.99734 -0.15211,-3.09614 -0.82942,-3.47546 -0.62489,-0.34997 -0.76877,-0.34345 -1.38906,0.063 l -0.69194,0.45338 v 15.38504 c 0,13.94466 0.041,15.43035 0.43789,15.86891 0.55361,0.61175 1.47315,0.62126 2.01332,0.0208 z"
           id="path992"
           inkscape:connector-curvature="0" />
        <path
           style="fill:#888d8f;fill-opacity:1;stroke-width:2.82838798"
           d="m 258.4848,-364.65885 c 0.36013,-0.39906 0.4331,-1.79698 0.52827,-10.12031 0.0935,-8.17273 0.18124,-9.89912 0.571,-11.23039 1.37279,-4.68912 4.14192,-7.34699 8.43309,-8.09426 4.67201,-0.8136 8.5639,1.18415 10.52266,5.40138 1.13652,2.44694 1.30083,4.24662 1.303,14.27139 0,5.83996 0.10226,9.39899 0.2759,9.72344 0.34772,0.64971 1.6111,0.67799 2.17766,0.0487 0.3571,-0.39663 0.43235,-1.73395 0.52488,-9.32656 0.11911,-9.77683 0.19163,-10.30532 1.91563,-13.96089 1.1951,-2.53408 3.10089,-4.53771 5.23555,-5.5043 1.38901,-0.62896 1.99787,-0.74585 3.8953,-0.74783 1.86566,-0.002 2.50365,0.1149 3.74333,0.68562 1.83054,0.84277 3.41503,2.38412 4.35726,4.23867 1.35401,2.66509 1.4179,3.29311 1.42126,13.97308 0.003,11.10167 0.0209,11.21583 1.67619,11.05395 1.50651,-0.14732 1.53112,-0.34343 1.42097,-11.3258 -0.10919,-10.89035 -0.17404,-11.41743 -1.82308,-14.81667 -1.03674,-2.13708 -3.51375,-4.6726 -5.50426,-5.63428 -5.77781,-2.79144 -13.12222,-0.40415 -16.40925,5.33379 -0.50652,0.88422 -0.98049,1.60633 -1.05325,1.60469 -0.0728,-0.002 -0.41466,-0.60453 -0.75978,-1.33976 -1.45716,-3.10431 -5.01372,-5.88239 -8.44256,-6.5946 -4.38814,-0.91148 -9.69529,1.13367 -12.41504,4.78421 l -1.00449,1.34826 -0.1323,-2.55149 c -0.11027,-2.12697 -0.21775,-2.61383 -0.64587,-2.92616 -0.65508,-0.47788 -0.95046,-0.47132 -1.67651,0.0372 l -0.58803,0.41188 v 15.44422 c 0,13.68743 0.0473,15.49152 0.41576,15.86 0.55044,0.55044 1.5176,0.528 2.03671,-0.0473 z"
           id="path974"
           inkscape:connector-curvature="0" />
      </g>
    </g>
  </g>
</svg>
