<?xml version="1.0" encoding="UTF-8" standalone="no"?>
<!-- Created with Inkscape (http://www.inkscape.org/) -->

<svg
   xmlns:dc="http://purl.org/dc/elements/1.1/"
   xmlns:cc="http://creativecommons.org/ns#"
   xmlns:rdf="http://www.w3.org/1999/02/22-rdf-syntax-ns#"
   xmlns:svg="http://www.w3.org/2000/svg"
   xmlns="http://www.w3.org/2000/svg"
   xmlns:sodipodi="http://sodipodi.sourceforge.net/DTD/sodipodi-0.dtd"
   xmlns:inkscape="http://www.inkscape.org/namespaces/inkscape"
   width="800"
   height="400"
   viewBox="0 0 211.66667 105.83333"
   version="1.1"
   id="svg8"
   inkscape:version="0.92.4 (5da689c313, 2019-01-14)"
   sodipodi:docname="traders.svg">
  <defs
     id="defs2" />
  <sodipodi:namedview
     id="base"
     pagecolor="#ffffff"
     bordercolor="#666666"
     borderopacity="1.0"
     inkscape:pageopacity="0.0"
     inkscape:pageshadow="2"
     inkscape:zoom="0.7"
     inkscape:cx="343.13225"
     inkscape:cy="102.52496"
     inkscape:document-units="mm"
     inkscape:current-layer="layer1"
     showgrid="false"
     fit-margin-top="0"
     fit-margin-left="0"
     fit-margin-right="0"
     fit-margin-bottom="0"
     units="px"
     inkscape:window-width="1600"
     inkscape:window-height="837"
     inkscape:window-x="-8"
     inkscape:window-y="-8"
     inkscape:window-maximized="1" />
  <metadata
     id="metadata5">
    <rdf:RDF>
      <cc:Work
         rdf:about="">
        <dc:format>image/svg+xml</dc:format>
        <dc:type
           rdf:resource="http://purl.org/dc/dcmitype/StillImage" />
        <dc:title></dc:title>
      </cc:Work>
    </rdf:RDF>
  </metadata>
  <g
     inkscape:label="Layer 1"
     inkscape:groupmode="layer"
     id="layer1"
     transform="translate(-34.303261,-70.126403)">
    <g
       id="g925"
       transform="matrix(0.42831173,0,0,0.42831173,299.26762,52.568099)"
       style="fill:#888d8f;fill-opacity:1;stroke-width:2.33474803">
      <g
         style="fill:#888d8f;fill-opacity:1;stroke-width:2.33474803"
         transform="translate(-436.3357,57.452381)"
         id="g894">
        <path
           style="fill:#888d8f;fill-opacity:1;stroke-width:2.33474803"
           d="m -54.358907,141.45926 c 0,-1.59257 -1.67219,-2.14997 -6.44989,-2.14997 h -6.449899 v -9.31651 c 0,-8.36097 -0.29401,-9.31651 -2.86661,-9.31651 -2.62774,0 -2.86662,0.95554 -2.86662,11.46647 v 11.46648 h 9.316509 c 7.3258,0 9.31651,-0.45939 9.31651,-2.14996 z"
           id="path870"
           inkscape:connector-curvature="0" />
        <path
           style="fill:#888d8f;fill-opacity:1;stroke-width:2.33474803"
           d="m -27.126017,141.45926 c 0,-1.62442 -1.75182,-2.14997 -7.16655,-2.14997 -5.41473,0 -7.16655,-0.52555 -7.16655,-2.14996 0,-1.50157 1.51294,-2.14997 5.01659,-2.14997 4.06104,0 5.01658,-0.54602 5.01658,-2.86662 0,-2.3206 -0.95554,-2.86662 -5.01658,-2.86662 -3.50365,0 -5.01659,-0.6484 -5.01659,-2.14996 0,-1.62441 1.75182,-2.14996 7.16655,-2.14996 5.41473,0 7.16655,-0.52556 7.16655,-2.14997 0,-1.70633 -2.07034,-2.14996 -10.03317,-2.14996 h -10.03317 v 11.46647 11.46648 h 10.03317 c 7.96283,0 10.03317,-0.44364 10.03317,-2.14996 z"
           id="path868"
           inkscape:connector-curvature="0" />
        <path
           style="fill:#888d8f;fill-opacity:1;stroke-width:8.8242445"
           d="m -25.947266,462.91797 c -6.845482,-0.27015 -13.772875,13.52539 -30.21875,43.29101 l -20.203125,36.56641 h 49.220703 c 27.07177369,0 49.193719,-1.82789 49.160157,-4.0625 C 21.977703,536.47828 11.381165,516.88652 -1.5371094,495.17578 -13.931119,474.3461 -19.907134,463.15634 -25.947266,462.91797 Z m 1.105469,30.19336 7.013672,12.64258 c 10.1965984,18.38162 9.179782,20.76953 -8.853516,20.76953 -8.938469,0 -16.251953,-1.30386 -16.251953,-2.89844 0,-1.59454 4.071315,-9.11332 9.046875,-16.70703 z"
           transform="scale(0.26458333)"
           id="path866"
           inkscape:connector-curvature="0" />
        <path
           style="fill:#888d8f;fill-opacity:1;stroke-width:2.33474803"
           d="m 27.433984,142.12549 c 2.02533,-1.08393 2.77239,-3.01506 2.77239,-7.16655 0,-5.53911 -0.12685,-5.68282 -5.01658,-5.68282 -4.06104,0 -5.01659,0.54602 -5.01659,2.86662 0,1.59257 0.95555,2.86662 2.14997,2.86662 2.46631,0 2.87248,2.2509 0.65361,3.62223 -2.22207,1.37333 -8.536821,-3.28663 -8.536821,-6.29975 0,-3.90408 4.583101,-7.30089 9.376701,-6.94965 5.74934,0.42127 5.8677,-3.80322 0.12499,-4.45951 -7.177531,-0.82025 -10.989611,0.96759 -13.165141,6.17437 -4.4625397,10.68035 6.4261,20.50411 16.657491,15.02844 z"
           id="path862"
           inkscape:connector-curvature="0" />
        <path
           style="fill:#888d8f;fill-opacity:1;stroke-width:2.33474803"
           d="m 56.005953,140.7426 c 3.68999,-3.69 4.27486,-20.06633 0.71665,-20.06633 -1.60425,0 -2.14996,1.69947 -2.14996,6.69536 0,6.771 -2.85252,11.93766 -6.59076,11.93766 -3.20878,0 -6.30903,-6.14348 -6.30903,-12.50206 0,-4.49421 -0.57397,-6.13096 -2.14997,-6.13096 -3.694539,0 -2.932529,15.46529 0.9665,19.61563 3.96784,4.22356 11.52421,4.44306 15.51657,0.4507 z"
           id="path860"
           inkscape:connector-curvature="0" />
        <path
           style="fill:#888d8f;fill-opacity:1;stroke-width:2.33474803"
           d="m 86.105453,141.45926 c 0,-1.62442 -1.75182,-2.14997 -7.16655,-2.14997 -5.41473,0 -7.16655,-0.52555 -7.16655,-2.14996 0,-1.50157 1.51295,-2.14997 5.01659,-2.14997 4.06104,0 5.01658,-0.54602 5.01658,-2.86662 0,-2.3206 -0.95554,-2.86662 -5.01658,-2.86662 -3.50364,0 -5.01659,-0.6484 -5.01659,-2.14996 0,-1.62441 1.75182,-2.14996 7.16655,-2.14996 5.41473,0 7.16655,-0.52556 7.16655,-2.14997 0,-1.70633 -2.07033,-2.14996 -10.03317,-2.14996 h -10.03317 v 11.46647 11.46648 h 10.03317 c 7.96284,0 10.03317,-0.44364 10.03317,-2.14996 z"
           id="path858"
           inkscape:connector-curvature="0" />
        <path
           style="fill:#888d8f;fill-opacity:1;stroke-width:2.33474803"
           d="m -87.744246,126.20321 c -0.9729,-7.25358 0.95344,-19.91195 3.9418,-25.90226 2.89796,-5.809101 2.8793,-5.843641 -1.83866,-3.403891 -4.87534,2.52114 -13.54072,11.871481 -16.745874,18.069561 -2.12023,4.10005 -2.12594,4.79756 -0.0651,7.94279 2.05927,3.14281 11.181144,9.01662 14.240814,9.16998 0.69503,0.0348 0.9052,-2.60944 0.46704,-5.87618 z"
           id="path856"
           inkscape:connector-curvature="0" />
        <path
           style="fill:#888d8f;fill-opacity:1;stroke-width:2.33474803"
           d="m -60.382077,102.38717 c 0.3707,-7.769661 0.79407,-8.943791 3.22495,-8.943791 1.84268,0 2.79822,-0.97889 2.79822,-2.86662 0,-2.5726 -0.95554,-2.86661 -9.31651,-2.86661 -8.360969,0 -9.316509,0.29401 -9.316509,2.86661 0,2.10219 0.95554,2.86662 3.58327,2.86662 3.45874,0 3.58327,0.32744 3.58327,9.421611 0,8.19945 0.32538,9.35963 2.508299,8.94379 2.01212,-0.3833 2.5927,-2.24701 2.93501,-9.42161 z"
           id="path854"
           inkscape:connector-curvature="0" />
        <path
           id="path850"
           style="fill:#888d8f;fill-opacity:1;stroke-width:2.33474803"
           d="m -44.743047,96.848229 c -2.12957,-2.12957 -0.85485,-3.40485 3.40337,-3.40485 2.89465,0 4.21581,0.61814 3.82934,1.79164 -0.66928,2.03224 -5.69314,3.15278 -7.23271,1.61321 z m -1.016,8.473841 v -6.754341 l 6.86876,6.765471 c 5.3448,5.26443 7.2506,6.38362 8.58982,5.0444 1.33922,-1.33922 1.06004,-2.4247 -1.25832,-4.89248 -2.40181,-2.55661 -2.67772,-3.73508 -1.42327,-6.079041 3.87545,-7.24135 0.0619,-11.69593 -10.01275,-11.69593 h -7.06417 v 12.18313 c 0,9.873911 0.40751,12.183131 2.14997,12.183131 1.60692,0 2.14996,-1.70602 2.14996,-6.75434 z"
           inkscape:connector-curvature="0" />
        <path
           style="fill:#888d8f;fill-opacity:1;stroke-width:8.8242445"
           d="m -54.996094,330.6543 -9.179687,15.32226 c -5.049525,8.42687 -17.142023,29.33871 -26.871094,46.47071 l -17.689455,31.14843 h 52.312502 c 28.771995,0 51.5010344,-1.8803 50.5078124,-4.17968 -0.9931087,-2.29939 -12.4430694,-23.21119 -25.4433594,-46.47071 z m -0.728515,47 c 3.897522,0.17353 8.128993,4.7299 12.951171,13.74023 5.007649,9.35683 3.801978,10.5332 -10.804687,10.5332 -9.043276,0 -16.441406,-1.38081 -16.441406,-3.0664 0,-1.68563 2.558542,-7.84685 5.6875,-13.69336 2.746304,-5.13153 5.576015,-7.64865 8.607422,-7.51367 z"
           transform="scale(0.26458333)"
           id="path848"
           inkscape:connector-curvature="0" />
        <path
           style="fill:#888d8f;fill-opacity:1;stroke-width:8.8242445"
           d="m 0.40429688,331.50195 v 42.43555 c 0,23.33923 1.62499742,44.06054 3.61132812,46.04688 5.281474,5.28151 31.508481,4.40891 47.240234,-1.57227 7.500019,-2.8515 17.461591,-12.58234 22.136719,-21.62305 17.246136,-33.35033 -6.890673,-65.28711 -49.341797,-65.28711 z M 30.019531,353.66406 c 1.731522,-0.0148 3.839616,0.19562 6.404297,0.50196 19.678147,2.35041 27.459388,15.95489 19.330078,33.79687 -4.388938,9.63266 -10.598934,13.96484 -20.021484,13.96484 -12.606652,0 -13.660156,-1.90713 -13.660156,-24.73828 0,-19.15695 0.444004,-23.46105 7.947265,-23.52539 z"
           transform="scale(0.26458333)"
           id="path844"
           inkscape:connector-curvature="0" />
        <path
           style="fill:#888d8f;fill-opacity:1;stroke-width:2.33474803"
           d="m 43.106163,109.20979 c 0,-2.44194 -0.95555,-2.86662 -6.449899,-2.86662 -4.77769,0 -6.44989,-0.5574 -6.44989,-2.14996 0,-1.50157 1.51294,-2.14997 5.01658,-2.14997 3.503639,0 5.016589,-0.6484 5.016589,-2.149961 0,-1.50157 -1.51295,-2.14997 -5.016589,-2.14997 -3.50364,0 -5.01658,-0.6484 -5.01658,-2.14996 0,-1.59257 1.6722,-2.14997 6.44989,-2.14997 5.494349,0 6.449899,-0.42468 6.449899,-2.86662 0,-2.5726 -0.95555,-2.86661 -9.316519,-2.86661 h -9.31651 v 12.18313 12.183131 h 9.31651 c 8.360969,0 9.316519,-0.29401 9.316519,-2.86662 z"
           id="path840"
           inkscape:connector-curvature="0" />
        <path
           id="path836"
           style="fill:#888d8f;fill-opacity:1;stroke-width:2.33474803"
           d="m 52.722023,96.848229 c -2.12958,-2.12957 -0.85486,-3.40485 3.40336,-3.40485 2.89466,0 4.21581,0.61814 3.82935,1.79164 -0.66929,2.03224 -5.69314,3.15278 -7.23271,1.61321 z m -1.016,8.479861 v -6.748321 l 6.19833,6.083211 c 4.25353,4.17452 6.95185,5.79406 8.59986,5.16166 1.35521,-0.52004 2.40152,-0.23025 2.40152,0.66511 0,0.92494 2.68992,1.58666 6.4499,1.58666 13.56936,0 16.96318,-13.425091 3.69365,-14.611201 -7.75852,-0.69351 -7.35563,-4.02183 0.48684,-4.02183 5.61379,0 6.56933,-0.41696 6.56933,-2.86662 0,-2.46847 -0.95554,-2.86661 -6.87989,-2.86661 -7.81533,0 -10.31983,1.7662 -10.31983,7.2777 0,4.61125 2.1608,6.637011 7.77267,7.286891 7.31184,0.84675 5.9142,3.73812 -2.07063,4.28359 -5.69625,0.38913 -7.86589,-0.0785 -9.68294,-2.08697 -1.9028,-2.10329 -2.01784,-3.10713 -0.61373,-5.355471 4.21615,-6.75113 -0.14118,-11.40574 -10.67727,-11.40574 h -7.66105 v 11.22759 c 0,11.482191 0.48189,13.138671 3.82216,13.138671 1.32196,0 1.91108,-2.08026 1.91108,-6.74832 z"
           inkscape:connector-curvature="0" />
        <path
           style="fill:#888d8f;fill-opacity:1;stroke-width:2.33474803"
           d="m -107.0748,105.23121 c 6.25352,-13.533481 17.365414,-22.061771 43.630803,-33.486301 9.33256,-4.05934 19.78134,-9.3031 23.2195,-11.65279 8.10076,-5.53618 12.36233,-14.57101 11.12633,-23.58861 -1.56896,-11.44679 -1.17196,-11.43375 -22.45321,-0.73765 -42.015949,21.11751 -60.505763,37.91638 -62.647553,56.91826 -0.66628,5.91123 1.78533,17.989181 3.63786,17.922001 0.56086,-0.0203 2.12968,-2.43904 3.48627,-5.37491 z"
           id="path834"
           inkscape:connector-curvature="0" />
        <path
           style="fill:#888d8f;fill-opacity:1;stroke-width:2.33474803"
           d="m -106.13618,60.144029 c 8.858964,-9.56873 21.713434,-18.676 41.027454,-29.06756 32.141839,-17.29334 41.378609,-27.5191701 38.176769,-42.26469 -1.33407,-6.14383 -2.02938,-6.08633 -19.74607,1.6330599 -31.822829,13.86562 -56.859053,34.8967701 -67.243143,56.4861801 -4.59029,9.5436 -5.5385,13.13841 -6.02143,22.82828 l -0.5732,11.50095 3.21383,-6.26357 c 1.76761,-3.44497 6.79221,-10.12866 11.16579,-14.85265 z"
           id="path826"
           inkscape:connector-curvature="0" />
      </g>
      <text
         id="text830"
         y="230.11298"
         x="-491.8877"
         style="font-style:normal;font-weight:normal;font-size:18.18899727px;line-height:1.25;font-family:sans-serif;letter-spacing:0px;word-spacing:0px;fill:#888d8f;fill-opacity:1;stroke:none;stroke-width:0.61773539"
         xml:space="preserve"><tspan
           style="fill:#888d8f;fill-opacity:1;stroke-width:0.61773539"
           y="230.11298"
           x="-491.8877"
           id="tspan828"
           sodipodi:role="line">F I N A N C I AL   F R E E D O M</tspan></text>
      <text
         transform="scale(0.97574378,1.0248592)"
         id="text898"
         y="176.70517"
         x="-329.71909"
         style="font-style:normal;font-weight:normal;font-size:28.18888474px;line-height:1.25;font-family:sans-serif;letter-spacing:0px;word-spacing:0px;fill:#888d8f;fill-opacity:1;stroke:none;stroke-width:0.61773539"
         xml:space="preserve"><tspan
           style="fill:#888d8f;fill-opacity:1;stroke-width:0.61773539"
           y="176.70517"
           x="-329.71909"
           id="tspan896"
           sodipodi:role="line">ACADEMY</tspan></text>
      <path
         inkscape:connector-curvature="0"
         id="path900"
         d="m -334.4082,141.27344 v 61.98828 h 2.0664 v -61.98828 z"
         style="color:#000000;font-style:normal;font-variant:normal;font-weight:normal;font-stretch:normal;font-size:medium;line-height:normal;font-family:sans-serif;font-variant-ligatures:normal;font-variant-position:normal;font-variant-caps:normal;font-variant-numeric:normal;font-variant-alternates:normal;font-feature-settings:normal;text-indent:0;text-align:start;text-decoration:none;text-decoration-line:none;text-decoration-style:solid;text-decoration-color:#000000;letter-spacing:normal;word-spacing:normal;text-transform:none;writing-mode:lr-tb;direction:ltr;text-orientation:mixed;dominant-baseline:auto;baseline-shift:baseline;text-anchor:start;white-space:normal;shape-padding:0;clip-rule:nonzero;display:inline;overflow:visible;visibility:visible;opacity:1;isolation:auto;mix-blend-mode:normal;color-interpolation:sRGB;color-interpolation-filters:linearRGB;solid-color:#000000;solid-opacity:1;vector-effect:none;fill:#888d8f;fill-opacity:1;fill-rule:nonzero;stroke:none;stroke-width:4.82125473;stroke-linecap:butt;stroke-linejoin:miter;stroke-miterlimit:4;stroke-dasharray:none;stroke-dashoffset:0;stroke-opacity:1;color-rendering:auto;image-rendering:auto;shape-rendering:auto;text-rendering:auto;enable-background:accumulate" />
    </g>
  </g>
</svg>
