<?xml version="1.0" encoding="UTF-8" standalone="no"?>
<!-- Generator: Adobe Illustrator 19.0.0, SVG Export Plug-In . SVG Version: 6.00 Build 0)  -->

<svg
   xmlns:dc="http://purl.org/dc/elements/1.1/"
   xmlns:cc="http://creativecommons.org/ns#"
   xmlns:rdf="http://www.w3.org/1999/02/22-rdf-syntax-ns#"
   xmlns:svg="http://www.w3.org/2000/svg"
   xmlns="http://www.w3.org/2000/svg"
   xmlns:sodipodi="http://sodipodi.sourceforge.net/DTD/sodipodi-0.dtd"
   xmlns:inkscape="http://www.inkscape.org/namespaces/inkscape"
   version="1.1"
   id="Capa_1"
   x="0px"
   y="0px"
   viewBox="0 0 914.20167 473.68"
   xml:space="preserve"
   sodipodi:docname="en.svg"
   inkscape:version="0.92.4 (5da689c313, 2019-01-14)"
   width="914.20166"
   height="473.67999"><metadata
   id="metadata129"><rdf:RDF><cc:Work
       rdf:about=""><dc:format>image/svg+xml</dc:format><dc:type
         rdf:resource="http://purl.org/dc/dcmitype/StillImage" /><dc:title></dc:title></cc:Work></rdf:RDF></metadata><defs
   id="defs127" /><sodipodi:namedview
   pagecolor="#ffffff"
   bordercolor="#666666"
   borderopacity="1"
   objecttolerance="10"
   gridtolerance="10"
   guidetolerance="10"
   inkscape:pageopacity="0"
   inkscape:pageshadow="2"
   inkscape:window-width="1600"
   inkscape:window-height="837"
   id="namedview125"
   showgrid="false"
   inkscape:zoom="0.49822666"
   inkscape:cx="862.01657"
   inkscape:cy="236.84001"
   inkscape:window-x="-8"
   inkscape:window-y="-8"
   inkscape:window-maximized="1"
   inkscape:current-layer="Capa_1"
   fit-margin-top="0"
   fit-margin-left="0"
   fit-margin-right="0"
   fit-margin-bottom="0" />











<g
   id="g971"
   transform="translate(440.52167)"><g
     id="g20">
	<path
   inkscape:connector-curvature="0"
   id="path12"
   d="m 45.619,97.144 c -1.324,1.81 -2.629,3.646 -3.908,5.501 l 73.816,73.812 H 7.793 c -1.746,6.645 -3.171,13.418 -4.345,20.284 h 141.776 z"
   style="fill:#ffffff" />
	<path
   inkscape:connector-curvature="0"
   id="path14"
   d="m 95.767,427.074 c 1.802,1.343 3.654,2.621 5.493,3.908 l 69.25,-69.242 v 102.45 c 6.653,1.945 13.41,3.624 20.284,4.974 V 332.05 Z"
   style="fill:#ffffff" />
	<path
   inkscape:connector-curvature="0"
   id="path16"
   d="m 5.25,286.487 c 1.47,6.873 3.205,13.642 5.258,20.284 h 105.001 l -69.833,69.833 c 7.595,10.377 16.017,20.115 25.168,29.12 L 190.08,286.487 Z"
   style="fill:#ffffff" />
	<path
   inkscape:connector-curvature="0"
   id="path18"
   d="M 170.511,9.48 V 121.462 L 95.696,46.652 C 85.382,54.322 75.741,62.837 66.808,72.055 L 190.791,196.038 V 4.506 c -6.87,1.358 -13.627,3.041 -20.28,4.974 z"
   style="fill:#ffffff" />
</g><g
     id="g922"><g
       id="g10">
	<path
   style="fill:#29337a"
   d="M 41.712,102.641 C 26.439,124.809 14.832,149.7 7.794,176.453 h 107.734 z"
   id="path2"
   inkscape:connector-curvature="0" />
	<path
   style="fill:#29337a"
   d="m 170.511,9.48 c -27.288,7.947 -52.56,20.628 -74.814,37.168 l 74.814,74.814 z"
   id="path4"
   inkscape:connector-curvature="0" />
	<path
   style="fill:#29337a"
   d="m 101.261,430.982 c 20.874,14.607 44.195,25.915 69.25,33.211 v -102.45 z"
   id="path6"
   inkscape:connector-curvature="0" />
	<path
   style="fill:#29337a"
   d="m 10.512,306.771 c 7.831,25.366 19.831,48.899 35.167,69.833 l 69.833,-69.833 z"
   id="path8"
   inkscape:connector-curvature="0" />
</g><g
       id="g32">
	<polygon
   style="fill:#d32030"
   points="169.8,306.771 170.511,306.771 170.511,306.056 "
   id="polygon22" />
	<polygon
   style="fill:#d32030"
   points="190.794,286.487 190.794,285.773 190.084,286.487 "
   id="polygon24" />
	<polygon
   style="fill:#d32030"
   points="280.545,196.737 280.545,197.425 281.229,196.737 "
   id="polygon26" />
	<polygon
   style="fill:#d32030"
   points="170.511,175.754 170.511,176.457 171.21,176.457 "
   id="polygon28" />
	<polygon
   style="fill:#d32030"
   points="190.794,196.737 191.494,196.737 190.794,196.037 "
   id="polygon30" />
</g><g
       id="g42">
	<path
   style="fill:#252f6c"
   d="m 300.825,411.764 v 53.091 c 25.381,-7.105 49.045,-18.305 70.211,-32.897 L 313.51,374.432 c -4.597,16.151 -6.279,24.501 -12.685,37.332 z"
   id="path34"
   inkscape:connector-curvature="0" />
	<path
   style="fill:#252f6c"
   d="M 313.812,108.471 376.611,45.672 C 354.05,29.15 328.456,16.559 300.824,8.818 v 54.538 c 7.386,14.79 8.007,26.028 12.988,45.115 z"
   id="path36"
   inkscape:connector-curvature="0" />
	<path
   style="fill:#252f6c"
   d="m 427.029,377.984 c 15.815,-21.275 28.141,-45.29 36.147,-71.213 h -107.36 z"
   id="path38"
   inkscape:connector-curvature="0" />
	<path
   style="fill:#252f6c"
   d="m 465.887,176.457 c -7.188,-27.318 -19.143,-52.676 -34.898,-75.192 l -75.2,75.192 z"
   id="path40"
   inkscape:connector-curvature="0" />
</g><g
       id="g56">
	<path
   style="fill:#e7e7e7"
   d="m 327.638,290.5 16.275,16.275 77.903,77.903 c 1.769,-2.214 3.526,-4.42 5.217,-6.69 L 355.82,306.775 h 107.36 c 2.046,-6.638 3.784,-13.41 5.25,-20.284 H 329.16 c -0.228,2.876 -1.249,1.152 -1.522,4.009 z"
   id="path44"
   inkscape:connector-curvature="0" />
	<path
   style="fill:#e7e7e7"
   d="m 311.352,120.348 70.607,-70.615 c -1.769,-1.372 -3.541,-2.737 -5.348,-4.061 l -62.799,62.799 c 0.651,2.483 -3.066,9.334 -2.46,11.877 z"
   id="path46"
   inkscape:connector-curvature="0" />
	<path
   style="fill:#e7e7e7"
   d="M 300.825,58.992 V 8.814 C 294.18,6.952 287.415,5.374 280.541,4.087 v 24.476 c 7.547,8.182 14.312,18.459 20.284,30.429 z"
   id="path48"
   inkscape:connector-curvature="0" />
	<path
   style="fill:#e7e7e7"
   d="m 326.041,196.737 h 144.195 c -1.171,-6.866 -2.599,-13.635 -4.345,-20.284 H 355.793 l 75.2,-75.192 C 423.6,90.7 415.384,80.768 406.409,71.565 l -84.702,84.694 c 2.281,15.363 3.302,24.285 4.334,40.478 z"
   id="path50"
   inkscape:connector-curvature="0" />
	<path
   style="fill:#e7e7e7"
   d="m 310.088,371.002 60.952,60.959 c 10.138,-6.982 19.685,-14.753 28.593,-23.189 L 319.46,328.595 c -2.559,14.828 -5.595,29.15 -9.372,42.407 z"
   id="path52"
   inkscape:connector-curvature="0" />
	<path
   style="fill:#e7e7e7"
   d="m 280.545,442.301 v 27.28 c 6.873,-1.279 13.635,-2.865 20.284,-4.727 v -53.091 c -5.976,11.975 -12.741,22.367 -20.284,30.538 z"
   id="path54"
   inkscape:connector-curvature="0" />
</g><path
       inkscape:connector-curvature="0"
       style="fill:#d71f28"
       d="m 321.707,156.259 84.694,-84.694 c -7.625,-7.831 -15.8,-15.119 -24.446,-21.832 l -66.55,66.561 c 2.958,12.363 4.301,26.514 6.302,39.965 z"
       id="path58" /><g
       id="g66">
	<path
   style="fill:#d32030"
   d="M 225.019,0.292 C 228.965,0.101 232.899,0 236.836,0 c -3.96,0 -7.901,0.101 -11.817,0.292 z"
   id="path60"
   inkscape:connector-curvature="0" />
	<path
   style="fill:#d32030"
   d="m 236.836,473.68 c -3.938,0 -7.872,-0.108 -11.81,-0.299 3.916,0.198 7.85,0.299 11.81,0.299 z"
   id="path62"
   inkscape:connector-curvature="0" />
	<path
   style="fill:#d32030"
   d="m 236.836,473.68 c 14.943,0 29.535,-1.447 43.708,-4.099 v -27.28 c -12.441,13.485 -26.995,31.379 -43.708,31.379 z"
   id="path64"
   inkscape:connector-curvature="0" />
</g><g
       id="g72">
	<path
   style="fill:#d71f28"
   d="M 470.232,196.737 H 327.911 c 1.885,29.704 1.657,60.249 -0.681,89.75 h 141.2 c 3.418,-16.017 5.25,-32.613 5.25,-49.643 0,-13.68 -1.219,-27.06 -3.448,-40.107 z"
   id="path68"
   inkscape:connector-curvature="0" />
	<path
   style="fill:#d71f28"
   d="m 327.638,290.5 c -1.316,13.994 -5.901,24.898 -8.182,38.099 l 80.173,80.173 c 7.932,-7.517 15.347,-15.557 22.183,-24.094 l -77.9,-77.907 z"
   id="path70"
   inkscape:connector-curvature="0" />
</g><path
       inkscape:connector-curvature="0"
       style="fill:#d32030"
       d="M 280.545,30.324 V 4.091 C 266.376,1.447 251.784,0 236.836,0 c 16.713,0 31.267,16.843 43.709,30.324 z"
       id="path74" /><g
       id="g80">
	<path
   style="fill:#29337a"
   d="m 300.825,422.007 c 6.406,-12.834 11.899,-27.609 16.499,-43.757 l -16.499,-16.499 z"
   id="path76"
   inkscape:connector-curvature="0" />
	<path
   style="fill:#29337a"
   d="M 319.377,102.906 C 314.388,83.819 308.211,66.467 300.825,51.677 v 69.773 z"
   id="path78"
   inkscape:connector-curvature="0" />
</g><g
       id="g90">
	<path
   style="fill:#ffffff"
   d="m 332.234,295.092 c 0.269,-2.857 0.512,-5.725 0.744,-8.605 h -9.349 z"
   id="path82"
   inkscape:connector-curvature="0" />
	<path
   style="fill:#ffffff"
   d="M 300.825,121.451 V 51.674 C 294.849,39.704 288.088,29.42 280.541,21.245 v 129.906 l 40.735,-40.735 c -0.613,-2.543 -1.257,-5.034 -1.9,-7.517 z"
   id="path84"
   inkscape:connector-curvature="0" />
	<path
   style="fill:#ffffff"
   d="m 281.229,196.737 h 52.429 c -1.028,-16.192 -2.666,-32.123 -4.944,-47.482 z"
   id="path86"
   inkscape:connector-curvature="0" />
	<path
   style="fill:#ffffff"
   d="m 280.545,452.432 c 7.547,-8.182 14.308,-18.459 20.284,-30.429 v -60.256 l 16.499,16.499 c 3.784,-13.264 6.959,-27.434 9.525,-42.261 l -46.307,-46.304 z"
   id="path88"
   inkscape:connector-curvature="0" />
</g></g><path
     id="path92"
     d="M 280.545,452.432 V 289.681 l 46.304,46.307 c 2.277,-13.205 4.069,-26.899 5.381,-40.896 l -8.605,-8.605 h 9.349 c 2.337,-29.502 2.565,-60.047 0.681,-89.75 h -52.429 l 47.482,-47.482 c -2.001,-13.455 -4.476,-26.469 -7.434,-38.836 l -40.728,40.735 V 21.248 C 268.103,7.763 253.549,0 236.836,0 232.898,0 228.964,0.101 225.019,0.292 213.37,0.875 201.946,2.308 190.794,4.507 V 196.038 L 66.808,72.055 C 59.19,79.916 52.104,88.292 45.619,97.144 l 79.313,79.313 20.291,20.284 H 3.448 C 1.227,209.784 0,223.164 0,236.844 0,253.878 1.84,270.47 5.25,286.487 H 190.084 L 70.847,405.724 c 7.808,7.67 16.121,14.813 24.921,21.349 l 95.023,-95.023 v 137.116 c 11.151,2.199 22.583,3.631 34.232,4.215 3.938,0.191 7.872,0.299 11.81,0.299 16.716,0 31.27,-7.763 43.712,-21.248 z"
     style="fill:#e51d35"
     inkscape:connector-curvature="0" /></g>
<g
   id="g94"
   transform="translate(440.52167,3.6621094e-6)">
</g>
<g
   id="g96"
   transform="translate(440.52167,3.6621094e-6)">
</g>
<g
   id="g98"
   transform="translate(440.52167,3.6621094e-6)">
</g>
<g
   id="g100"
   transform="translate(440.52167,3.6621094e-6)">
</g>
<g
   id="g102"
   transform="translate(440.52167,3.6621094e-6)">
</g>
<g
   id="g104"
   transform="translate(440.52167,3.6621094e-6)">
</g>
<g
   id="g106"
   transform="translate(440.52167,3.6621094e-6)">
</g>
<g
   id="g108"
   transform="translate(440.52167,3.6621094e-6)">
</g>
<g
   id="g110"
   transform="translate(440.52167,3.6621094e-6)">
</g>
<g
   id="g112"
   transform="translate(440.52167,3.6621094e-6)">
</g>
<g
   id="g114"
   transform="translate(440.52167,3.6621094e-6)">
</g>
<g
   id="g116"
   transform="translate(440.52167,3.6621094e-6)">
</g>
<g
   id="g118"
   transform="translate(440.52167,3.6621094e-6)">
</g>
<g
   id="g120"
   transform="translate(440.52167,3.6621094e-6)">
</g>
<g
   id="g122"
   transform="translate(440.52167,3.6621094e-6)">
</g>
<g
   id="g6"
   style="fill:#30c22f;fill-opacity:1;stroke-width:1.64821732"
   transform="matrix(0,0.6067161,-0.6067161,0,298.50675,139.5866)"><g
     id="g4"
     style="fill:#30c22f;fill-opacity:1;stroke-width:1.64821732"><path
       d="M 382.678,226.804 163.73,7.86 C 158.666,2.792 151.906,0 144.698,0 137.49,0 130.73,2.792 125.666,7.86 l -16.124,16.12 c -10.492,10.504 -10.492,27.576 0,38.064 L 293.398,245.9 109.338,429.96 c -5.064,5.068 -7.86,11.824 -7.86,19.028 0,7.212 2.796,13.968 7.86,19.04 l 16.124,16.116 c 5.068,5.068 11.824,7.86 19.032,7.86 7.208,0 13.968,-2.792 19.032,-7.86 L 382.678,265 c 5.076,-5.084 7.864,-11.872 7.848,-19.088 0.016,-7.244 -2.772,-14.028 -7.848,-19.108 z"
       id="path2-1"
       inkscape:connector-curvature="0"
       style="fill:#30c22f;fill-opacity:1;stroke-width:1.64821732" /></g></g></svg>