<?xml version="1.0" encoding="UTF-8" standalone="no"?>
<!-- Generator: Adobe Illustrator 19.0.0, SVG Export Plug-In . SVG Version: 6.00 Build 0)  -->

<svg
   xmlns:dc="http://purl.org/dc/elements/1.1/"
   xmlns:cc="http://creativecommons.org/ns#"
   xmlns:rdf="http://www.w3.org/1999/02/22-rdf-syntax-ns#"
   xmlns:svg="http://www.w3.org/2000/svg"
   xmlns="http://www.w3.org/2000/svg"
   xmlns:sodipodi="http://sodipodi.sourceforge.net/DTD/sodipodi-0.dtd"
   xmlns:inkscape="http://www.inkscape.org/namespaces/inkscape"
   version="1.1"
   id="Layer_1"
   x="0px"
   y="0px"
   viewBox="0 0 500 500"
   xml:space="preserve"
   width="500"
   height="500"
   sodipodi:docname="mision.svg"
   inkscape:version="0.92.4 (5da689c313, 2019-01-14)"><metadata
   id="metadata11"><rdf:RDF><cc:Work
       rdf:about=""><dc:format>image/svg+xml</dc:format><dc:type
         rdf:resource="http://purl.org/dc/dcmitype/StillImage" /><dc:title></dc:title></cc:Work></rdf:RDF></metadata><defs
   id="defs9" /><sodipodi:namedview
   pagecolor="#ffffff"
   bordercolor="#666666"
   borderopacity="1"
   objecttolerance="10"
   gridtolerance="10"
   guidetolerance="10"
   inkscape:pageopacity="0"
   inkscape:pageshadow="2"
   inkscape:window-width="1600"
   inkscape:window-height="837"
   id="namedview7"
   showgrid="false"
   fit-margin-top="0"
   fit-margin-left="0"
   fit-margin-right="0"
   fit-margin-bottom="0"
   inkscape:zoom="0.4609375"
   inkscape:cx="256"
   inkscape:cy="236"
   inkscape:window-x="-8"
   inkscape:window-y="-8"
   inkscape:window-maximized="1"
   inkscape:current-layer="Layer_1" />
<g
   id="XMLID_996_"
   style="fill:#30c22f;fill-opacity:1;stroke-width:1.02400112"
   transform="matrix(0.97656145,0,0,0.97656145,-8.7113276e-7,2.688e-4)">
	<g
   id="XMLID_41_"
   style="fill:#30c22f;fill-opacity:1;stroke-width:1.02400112">
		
		<path
   id="XMLID_4221_"
   d="m 474.216,238 34.855,-34.855 c 2.86,-2.86 3.715,-7.162 2.167,-10.898 -1.548,-3.737 -5.194,-6.173 -9.239,-6.173 H 429.748 C 420.304,147.414 400.483,112.187 372.148,83.851 330.975,42.676 276.23,20 218,20 159.77,20 105.025,42.676 63.851,83.851 22.676,125.026 0,179.77 0,238 c 0,58.23 22.676,112.975 63.851,154.149 12.244,12.244 25.695,22.838 40.074,31.7 l -30.127,53.225 c -1.752,3.096 -1.728,6.89 0.064,9.962 1.791,3.074 5.08,4.964 8.638,4.964 H 134 c 3.603,0 6.928,-1.938 8.703,-5.074 l 21.302,-37.635 C 181.44,453.714 199.544,456 218,456 c 18.456,0 36.56,-2.286 53.995,-6.709 l 21.302,37.635 c 1.775,3.136 5.1,5.074 8.703,5.074 h 51.5 c 3.558,0 6.847,-1.89 8.639,-4.963 1.792,-3.073 1.816,-6.867 0.064,-9.962 L 332.076,423.85 c 14.379,-8.863 27.83,-19.456 40.074,-31.7 28.324,-28.324 48.155,-63.566 57.598,-102.223 H 502 c 4.044,0 7.691,-2.437 9.239,-6.173 1.548,-3.736 0.692,-8.038 -2.167,-10.898 z m -18.285,-10 h -69.789 l 21.926,-21.926 h 69.79 z M 128.169,472 H 99.651 l 21.766,-38.453 c 7.47,3.698 15.139,6.969 22.985,9.775 z m 208.18,0 h -28.518 l -16.233,-28.678 c 7.846,-2.806 15.515,-6.077 22.985,-9.775 z m 21.658,-93.993 c -13.21,13.21 -27.964,24.312 -43.846,33.162 -0.196,0.095 -0.394,0.185 -0.587,0.294 -0.121,0.069 -0.231,0.148 -0.348,0.221 -12.183,6.702 -25.021,12.083 -38.342,16.057 -0.524,0.104 -1.042,0.258 -1.553,0.45 C 255.577,433.329 236.995,436 218,436 c -18.995,0 -37.577,-2.671 -55.331,-7.808 -0.512,-0.192 -1.03,-0.346 -1.555,-0.45 -13.32,-3.974 -26.158,-9.355 -38.34,-16.057 -0.117,-0.073 -0.227,-0.152 -0.348,-0.221 -0.193,-0.109 -0.39,-0.199 -0.586,-0.294 C 105.958,402.32 91.204,391.218 77.994,378.007 40.596,340.61 20,290.888 20,238 20,185.112 40.596,135.39 77.993,97.993 115.39,60.596 165.112,40 218,40 c 52.888,0 102.61,20.596 140.007,57.993 24.573,24.573 42.099,54.844 51.098,88.081 h -5.178 c -2.652,0 -5.196,1.054 -7.071,2.929 l -26.541,26.541 c -2.678,-18.181 -8.556,-35.859 -17.432,-51.936 -2.669,-4.835 -8.753,-6.589 -13.588,-3.921 -4.835,2.669 -6.59,8.753 -3.921,13.588 9.493,17.194 14.796,35.888 16.153,54.726 H 307.435 C 305.209,207.745 296.258,188.98 281.64,174.362 264.641,157.362 242.04,148 218,148 c -24.04,0 -46.641,9.362 -63.639,26.36 -16.999,17 -26.361,39.6 -26.361,63.64 0,24.04 9.362,46.641 26.36,63.639 16.999,16.999 39.6,26.361 63.64,26.361 24.04,0 46.641,-9.362 63.639,-26.36 14.618,-14.618 23.569,-33.383 25.795,-53.64 h 44.049 c -2.385,31.26 -15.576,61.596 -38.731,84.752 C 287.443,358.062 253.792,372 218,372 182.208,372 148.557,358.062 123.248,332.752 97.938,307.443 84,273.793 84,238 c 0,-35.793 13.938,-69.443 39.248,-94.752 41.982,-41.982 107.562,-51.284 159.478,-22.621 4.834,2.668 10.918,0.914 13.588,-3.921 2.669,-4.835 0.914,-10.918 -3.921,-13.588 C 263.748,87.303 230.019,81 197.422,85.374 163.737,89.892 133.197,105.014 109.106,129.106 80.019,158.193 64,196.865 64,238 64,279.135 80.019,317.808 109.105,346.894 138.192,375.981 176.865,392 218,392 c 41.135,0 79.808,-16.019 108.894,-45.105 23.635,-23.634 38.629,-53.475 43.456,-86.402 l 26.505,26.505 c 1.875,1.875 4.419,2.929 7.071,2.929 h 5.176 c -8.999,33.235 -26.532,63.517 -51.095,88.08 z M 250.66,219.144 c -2.761,-4.784 -8.877,-6.422 -13.66,-3.66 l -24,13.856 c -3.094,1.786 -5,5.087 -5,8.66 0,3.573 1.906,6.874 5,8.66 l 24,13.856 c 1.575,0.909 3.294,1.341 4.991,1.341 3.456,0 6.817,-1.793 8.669,-5.001 1.623,-2.81 1.716,-6.077 0.555,-8.856 h 36.072 c -2.119,14.903 -8.956,28.664 -19.79,39.497 v 0 C 254.276,300.719 236.698,308 218,308 199.302,308 181.724,300.719 168.502,287.497 155.281,274.276 148,256.698 148,238 c 0,-18.698 7.281,-36.276 20.503,-49.498 C 181.724,175.281 199.302,168 218,168 c 18.698,0 36.276,7.281 49.498,20.503 10.833,10.833 17.671,24.594 19.79,39.497 h -36.072 c 1.16,-2.78 1.067,-6.046 -0.556,-8.856 z M 408.068,269.926 386.142,248 h 69.789 l 21.927,21.926 z"
   inkscape:connector-curvature="0"
   style="fill:#30c22f;fill-opacity:1;stroke-width:1.02400112" />
	</g>
</g>















</svg>