<?xml version="1.0" encoding="UTF-8" standalone="no"?>
<svg
   xmlns:dc="http://purl.org/dc/elements/1.1/"
   xmlns:cc="http://creativecommons.org/ns#"
   xmlns:rdf="http://www.w3.org/1999/02/22-rdf-syntax-ns#"
   xmlns:svg="http://www.w3.org/2000/svg"
   xmlns="http://www.w3.org/2000/svg"
   xmlns:sodipodi="http://sodipodi.sourceforge.net/DTD/sodipodi-0.dtd"
   xmlns:inkscape="http://www.inkscape.org/namespaces/inkscape"
   id="regular"
   enable-background="new 0 0 24 24"
   height="300"
   viewBox="0 0 14.062501 14.062501"
   width="300"
   version="1.1"
   sodipodi:docname="ok.svg"
   inkscape:version="0.92.4 (5da689c313, 2019-01-14)">
  <metadata
     id="metadata49">
    <rdf:RDF>
      <cc:Work
         rdf:about="">
        <dc:format>image/svg+xml</dc:format>
        <dc:type
           rdf:resource="http://purl.org/dc/dcmitype/StillImage" />
        <dc:title></dc:title>
      </cc:Work>
    </rdf:RDF>
  </metadata>
  <defs
     id="defs47" />
  <sodipodi:namedview
     pagecolor="#ffffff"
     bordercolor="#666666"
     borderopacity="1"
     objecttolerance="10"
     gridtolerance="10"
     guidetolerance="10"
     inkscape:pageopacity="0"
     inkscape:pageshadow="2"
     inkscape:window-width="1600"
     inkscape:window-height="837"
     id="namedview45"
     showgrid="false"
     fit-margin-top="0"
     fit-margin-left="0"
     fit-margin-right="0"
     fit-margin-bottom="0"
     inkscape:zoom="0.921875"
     inkscape:cx="106.66667"
     inkscape:cy="42.66667"
     inkscape:window-x="-8"
     inkscape:window-y="-8"
     inkscape:window-maximized="1"
     inkscape:current-layer="regular" />
  <g
     id="g884"
     transform="translate(-6.9687879,0.03151108)">
    <g
       style="fill:#30c22f;fill-opacity:1"
       id="g12">
      <circle
         cx="12"
         cy="9"
         r="1.75"
         id="circle10"
         style="fill:#30c22f;fill-opacity:1" />
    </g>
    <g
       style="fill:#30c22f;fill-opacity:1"
       id="g20">
      <path
         style="fill:#30c22f;fill-opacity:1"
         d="M 12,14 C 9.243,14 7,11.757 7,9 7,6.243 9.243,4 12,4 c 0.414,0 0.75,0.336 0.75,0.75 0,0.414 -0.336,0.75 -0.75,0.75 -1.93,0 -3.5,1.57 -3.5,3.5 0,1.93 1.57,3.5 3.5,3.5 1.93,0 3.5,-1.57 3.5,-3.5 0,-0.414 0.336,-0.75 0.75,-0.75 0.414,0 0.75,0.336 0.75,0.75 0,2.757 -2.243,5 -5,5 z"
         id="path18"
         inkscape:connector-curvature="0" />
    </g>
    <g
       style="fill:#30c22f;fill-opacity:1"
       id="g24">
      <path
         style="fill:#30c22f;fill-opacity:1"
         d="m 12,9.75 c -0.192,0 -0.384,-0.073 -0.53,-0.22 -0.293,-0.293 -0.293,-0.768 0,-1.061 l 3,-3 c 0.293,-0.293 0.768,-0.293 1.061,0 0.293,0.293 0.293,0.768 0,1.061 l -3,3 C 12.384,9.677 12.192,9.75 12,9.75 Z"
         id="path22"
         inkscape:connector-curvature="0" />
    </g>
    <g
       style="fill:#30c22f;fill-opacity:1"
       id="g28">
      <path
         style="fill:#30c22f;fill-opacity:1"
         d="m 17.75,6.5 h -2.5 C 14.836,6.5 14.5,6.164 14.5,5.75 v -2.5 c 0,-0.199 0.079,-0.39 0.22,-0.53 l 2.5,-2.5 c 0.214,-0.215 0.538,-0.28 0.817,-0.163 0.28,0.116 0.463,0.39 0.463,0.693 V 2.5 h 1.75 c 0.303,0 0.577,0.183 0.693,0.463 0.116,0.28 0.052,0.603 -0.163,0.817 l -2.5,2.5 C 18.14,6.421 17.949,6.5 17.75,6.5 Z M 16,5 h 1.439 l 1,-1 H 17.75 C 17.336,4 17,3.664 17,3.25 V 2.561 l -1,1 z"
         id="path26"
         inkscape:connector-curvature="0" />
    </g>
  </g>
</svg>
