<?xml version="1.0" encoding="UTF-8" standalone="no"?>
<!-- Created with Inkscape (http://www.inkscape.org/) -->

<svg
   xmlns:dc="http://purl.org/dc/elements/1.1/"
   xmlns:cc="http://creativecommons.org/ns#"
   xmlns:rdf="http://www.w3.org/1999/02/22-rdf-syntax-ns#"
   xmlns:svg="http://www.w3.org/2000/svg"
   xmlns="http://www.w3.org/2000/svg"
   xmlns:sodipodi="http://sodipodi.sourceforge.net/DTD/sodipodi-0.dtd"
   xmlns:inkscape="http://www.inkscape.org/namespaces/inkscape"
   width="500.00003"
   height="500.00003"
   viewBox="0 0 132.29167 132.29167"
   version="1.1"
   id="svg8"
   inkscape:version="0.92.4 (5da689c313, 2019-01-14)"
   sodipodi:docname="vision.svg">
  <defs
     id="defs2" />
  <sodipodi:namedview
     id="base"
     pagecolor="#ffffff"
     bordercolor="#666666"
     borderopacity="1.0"
     inkscape:pageopacity="0.0"
     inkscape:pageshadow="2"
     inkscape:zoom="0.35"
     inkscape:cx="-151.80122"
     inkscape:cy="315.9273"
     inkscape:document-units="mm"
     inkscape:current-layer="layer1"
     showgrid="false"
     fit-margin-top="0"
     fit-margin-left="0"
     fit-margin-right="0"
     fit-margin-bottom="0"
     units="px"
     inkscape:window-width="1600"
     inkscape:window-height="837"
     inkscape:window-x="-8"
     inkscape:window-y="-8"
     inkscape:window-maximized="1" />
  <metadata
     id="metadata5">
    <rdf:RDF>
      <cc:Work
         rdf:about="">
        <dc:format>image/svg+xml</dc:format>
        <dc:type
           rdf:resource="http://purl.org/dc/dcmitype/StillImage" />
        <dc:title></dc:title>
      </cc:Work>
    </rdf:RDF>
  </metadata>
  <g
     inkscape:label="Layer 1"
     inkscape:groupmode="layer"
     id="layer1"
     transform="translate(-29.081892,-100.13077)">
    <path
       style="fill:#30c22f;fill-opacity:1;stroke-width:1"
       d="m 53.982581,228.08382 c -8.932991,-1.20817 -17.033525,-6.52808 -21.441544,-14.08145 -4.406846,-7.55134 -4.615725,-16.91921 -0.553935,-24.84362 0.61574,-1.2013 4.521278,-11.3578 8.67897,-22.56997 4.157683,-11.21217 7.943443,-21.15024 8.412792,-22.08459 0.46935,-0.93435 1.248066,-2.19025 1.730482,-2.79091 0.644971,-0.80303 1.514537,-2.81524 3.285312,-7.60228 l 2.408183,-6.51019 -0.591845,-1.86254 c -2.782949,-8.75796 2.33638,-17.98011 11.555174,-20.81592 2.011632,-0.6188 2.666484,-0.70434 5.392612,-0.70434 2.520886,0 3.46672,0.10598 5.042279,0.56497 4.817406,1.40341 8.608247,4.40335 10.851508,8.58755 1.414678,2.6387 1.913269,4.95386 1.758373,8.16483 -0.160727,3.33182 -1.040041,5.88074 -2.955039,8.56594 l -1.380344,1.93553 v 7.62913 7.62914 h 9.050234 9.050237 v -7.62914 -7.62913 l -1.38034,-1.93553 c -1.915,-2.6852 -2.79432,-5.23412 -2.955048,-8.56594 -0.154687,-3.20666 0.342598,-5.52097 1.754368,-8.16483 2.20362,-4.12675 6.08072,-7.19352 10.85552,-8.58667 1.6101,-0.46978 2.48806,-0.56376 5.17156,-0.55354 2.83886,0.0109 3.48398,0.094 5.30085,0.68339 2.80824,0.91104 5.4165,2.48613 7.42363,4.48305 1.97517,1.96511 3.00702,3.57675 3.98724,6.22758 0.63799,1.72533 0.71928,2.2928 0.73011,5.09644 0.0103,2.65676 -0.0847,3.44905 -0.60149,5.01749 l -0.61369,1.86254 2.40504,6.51019 c 1.49214,4.03905 2.66893,6.8326 3.10026,7.35959 1.26059,1.54017 2.25105,3.4731 3.58501,6.99634 1.44693,3.82163 1.57099,4.65661 0.79944,5.38074 -0.64961,0.60967 -2.09758,0.64282 -2.65025,0.0607 -0.22175,-0.23359 -0.95078,-1.89904 -1.62008,-3.70099 -1.44961,-3.90282 -2.15113,-5.25833 -3.6424,-7.03795 -2.15161,-2.56763 -5.90742,-4.71638 -9.34841,-5.34835 -2.68496,-0.49311 -6.5327,-0.20365 -8.90464,0.66989 -6.76348,2.49086 -10.78243,8.43367 -10.49883,15.52454 l 0.0757,1.89503 1.42218,0.13043 c 2.19334,0.20113 3.29708,0.8852 4.29267,2.66049 0.39468,0.70378 0.4762,1.41107 0.47549,4.12568 -7.7e-4,2.86498 -0.0694,3.39817 -0.54694,4.24704 -0.95947,1.70559 -2.43657,2.54823 -4.46695,2.54823 h -1.30574 l 0.0153,8.91877 c 0.0119,7.00165 0.0814,8.81941 0.32322,8.45649 1.1465,-1.72074 3.57004,-4.47525 5.13071,-5.83139 9.81955,-8.53272 24.50008,-9.75081 35.498,-2.94538 l 2.42551,1.50087 -2.01816,-5.47438 c -1.10999,-3.01092 -2.66994,-7.21523 -3.46656,-9.34291 -0.79663,-2.12769 -1.44841,-4.12076 -1.44841,-4.42906 0,-1.34228 2.32954,-2.10116 3.27354,-1.06639 0.23326,0.25569 2.71212,6.61715 5.50857,14.13657 2.79644,7.51942 5.56782,14.61324 6.15861,15.76404 6.41469,12.49523 1.6862,27.63106 -10.91331,34.93336 -13.28463,7.69935 -30.71022,4.13535 -39.35309,-8.04877 -1.86005,-2.62217 -3.4541,-6.00397 -4.10672,-8.71253 -0.24122,-1.00108 -0.48249,-1.95817 -0.53615,-2.12688 -0.0765,-0.24069 -1.89229,-0.29294 -8.431889,-0.24269 l -8.334309,0.064 -0.319446,1.48169 c -1.745873,8.09787 -8.135221,15.64989 -16.198862,19.14657 -4.967837,2.15424 -11.024449,2.9989 -16.344263,2.27941 z m 10.213835,-4.09366 c 4.378661,-1.00663 9.136915,-3.65412 12.264716,-6.82405 9.98196,-10.11649 8.756265,-25.8927 -2.680098,-34.49615 -12.673707,-9.53428 -31.442561,-5.45137 -38.411369,8.35588 -1.767531,3.50198 -2.315104,5.90664 -2.310374,10.14596 0.0039,3.07122 0.09343,3.8251 0.707421,5.9249 0.794587,2.71751 2.228916,5.57128 3.900349,7.76026 1.315606,1.72294 4.391854,4.56297 6.180006,5.70543 2.941165,1.87913 6.985949,3.36991 10.652674,3.92624 2.135661,0.32404 7.266102,0.0603 9.696675,-0.49847 z m -9.868769,-3.03872 C 45.36305,219.35331 38.47961,212.8223 36.921496,204.43647 c -0.494662,-2.66229 -0.494662,-4.10974 0,-6.77203 1.468232,-7.90206 7.583296,-14.07237 16.026776,-16.17155 2.871326,-0.71387 7.450617,-0.71664 10.343122,-0.007 2.700924,0.66331 6.311512,2.35734 8.351164,3.91823 3.43092,2.62559 6.181423,6.68205 7.31744,10.79184 0.754156,2.72834 0.753188,7.03048 -0.002,9.70751 -2.054135,7.27991 -7.92245,12.87018 -15.422842,14.69212 -2.708928,0.65803 -6.654536,0.8102 -9.20733,0.35511 z m 8.98385,-4.11082 c 2.82342,-0.84041 5.076494,-2.13594 7.216124,-4.1493 2.072059,-1.94978 3.256472,-3.69862 4.164377,-6.14885 2.243654,-6.05514 0.648108,-12.60103 -4.174785,-17.12755 -4.831064,-4.53419 -11.786443,-6.02758 -18.248998,-3.91823 -2.61066,0.85211 -4.474006,1.96374 -6.55145,3.90847 -2.131586,1.9954 -3.507091,4.09455 -4.450287,6.79154 -0.863926,2.47035 -0.972631,6.58871 -0.240211,9.10078 1.853417,6.35684 7.639941,11.14549 14.766358,12.21995 1.749822,0.26382 5.489766,-0.0728 7.518872,-0.67681 z m 75.409153,7.05725 c 2.53555,-0.61446 5.78145,-1.99344 7.94665,-3.37602 1.72491,-1.10142 4.81925,-3.96443 6.09377,-5.63818 1.67835,-2.20411 3.19026,-5.2148 3.93553,-7.83693 0.93041,-3.27351 0.98263,-8.32817 0.11961,-11.57811 -1.1295,-4.25341 -3.90757,-8.67196 -7.31361,-11.63235 -9.21918,-8.01293 -23.07664,-8.50521 -32.83205,-1.16632 -10.06728,7.5735 -12.42885,21.13603 -5.43132,31.19208 3.85424,5.53887 9.77028,9.23949 16.75873,10.48296 2.92073,0.51969 7.52559,0.32767 10.72269,-0.44713 z m -10.23024,-2.97095 c -8.17158,-1.38553 -14.80239,-7.24627 -16.99664,-15.02272 -0.75537,-2.67702 -0.75634,-6.97916 -0.002,-9.7075 1.58802,-5.74501 5.69697,-10.52724 11.27278,-13.11992 3.30724,-1.53783 5.79125,-2.09222 9.4381,-2.10642 5.83116,-0.0228 10.7926,1.79547 14.90568,5.4624 2.2992,2.0498 3.98333,4.35655 5.14269,7.04397 1.24941,2.8961 1.33834,3.58499 0.57092,4.42233 -0.68324,0.74551 -1.92164,0.92634 -2.61976,0.38256 -0.21289,-0.16583 -0.64076,-1.0304 -0.95082,-1.92128 -0.98959,-2.84332 -2.28786,-4.86813 -4.38086,-6.83245 -3.10964,-2.91849 -6.32459,-4.40327 -10.49781,-4.84833 -12.91953,-1.3778 -22.88647,10.32947 -18.61291,21.86291 0.9079,2.45023 2.09232,4.19907 4.16438,6.14885 2.12605,2.00059 4.36265,3.29157 7.23622,4.1768 2.6321,0.81084 7.02013,0.91286 9.69668,0.22545 5.86285,-1.50575 10.47913,-5.73587 12.41306,-11.37467 0.59559,-1.73658 1.00999,-2.12022 2.29013,-2.12022 0.82313,0 1.84889,0.93028 1.84235,1.67086 -0.002,0.2156 -0.33745,1.29254 -0.74567,2.39321 -2.57736,6.94936 -8.94856,12.01185 -16.71727,13.28334 -2.71784,0.44483 -4.74321,0.43961 -7.44907,-0.0191 z m -25.24869,-25.70097 v -6.18854 h -8.015927 -8.015922 v 6.18854 6.18853 h 8.015922 8.015927 z M 83.331199,178.48049 v -8.85811 h -1.303192 c -2.071042,0 -3.5136,-0.8472 -4.545603,-2.66956 -0.706033,-1.24677 -0.706033,-7.00463 0,-8.25139 1.007844,-1.77971 2.105912,-2.45953 4.297326,-2.66049 l 1.422181,-0.13042 -0.02794,-2.91225 c -0.03265,-3.40274 -0.483108,-5.28304 -1.853254,-7.73587 -1.096664,-1.96324 -3.473348,-4.29867 -5.543296,-5.44707 -5.048641,-2.80101 -11.772321,-2.95069 -16.719928,-0.37223 -2.507213,1.30664 -4.915014,3.70587 -6.208632,6.1865 -0.582101,1.11624 -3.667867,9.07355 -6.857248,17.6829 -3.18939,8.60935 -5.877579,15.83994 -5.973756,16.06799 -0.105705,0.25063 0.648294,-0.10248 1.906201,-0.89271 8.791272,-5.52273 19.427087,-6.19143 28.923836,-1.81853 4.533182,2.08738 8.679479,5.45181 11.26187,9.13825 0.589899,0.8421 1.106044,1.53109 1.14699,1.53109 0.04095,0 0.07445,-3.98615 0.07445,-8.8581 z m 19.910521,-0.97076 v -7.88735 h -8.015927 -8.015922 v 7.88735 7.88736 h 8.015922 8.015927 z m 6.07658,-14.68261 v -3.0336 H 95.225793 81.133285 l -0.07357,2.77607 c -0.04046,1.52684 -0.01464,2.9202 0.05739,3.09636 0.106669,0.2609 2.733709,0.30865 14.166079,0.25753 l 14.035116,-0.0627 z m -6.07658,-9.34348 v -2.54823 h -8.015927 -8.015922 v 2.54823 2.54822 h 8.015922 8.015927 z m -20.994419,-23.67559 -0.07971,-7.1728 -0.975445,-1.85146 c -1.75374,-3.32873 -4.547918,-5.05634 -8.462653,-5.23239 -2.606165,-0.11719 -4.452672,0.38572 -6.437848,1.75343 -2.206917,1.52047 -2.879243,2.75544 -5.831569,10.71188 -1.48898,4.01276 -2.782147,7.47915 -2.873711,7.70308 -0.138572,0.33895 0.08718,0.30176 1.347105,-0.22197 5.173325,-2.15031 11.49462,-2.09044 16.612836,0.15736 1.936389,0.85042 4.43592,2.48758 5.716262,3.7441 l 0.905023,0.88816 0.07971,-1.65328 c 0.04383,-0.90932 0.04383,-4.88105 0,-8.82611 z m 29.855999,7.3129 c 5.56692,-3.50635 12.90534,-4.17929 19.06912,-1.74869 1.46509,0.57773 1.81532,0.6472 1.68755,0.33471 -0.0886,-0.21689 -1.378,-3.6775 -2.86517,-7.69026 -3.00694,-8.11345 -3.66344,-9.28332 -6.08979,-10.8519 -2.02262,-1.30758 -3.71083,-1.74267 -6.27034,-1.61596 -2.70742,0.13402 -4.59182,0.91418 -6.45638,2.67298 -1.42205,1.34141 -2.32092,2.84629 -2.75498,4.61242 -0.14135,0.57513 -0.2588,4.73254 -0.26228,9.28458 l -0.007,8.24309 1.35754,-1.23202 c 0.74665,-0.67761 1.91262,-1.58163 2.59106,-2.00895 z M 86.662123,120.76357 c 0.08505,-5.95347 -4.387546,-11.27916 -10.633096,-12.6612 -7.281075,-1.61118 -14.894756,2.7937 -16.606014,9.6074 -0.669707,2.66653 -0.502363,2.98093 0.569279,1.06951 2.38591,-4.25561 7.087266,-6.9166 12.220043,-6.9166 7.036163,0 12.653712,4.62168 13.864123,11.40632 0.188755,1.05801 0.200456,1.06938 0.374952,0.36404 0.09907,-0.40044 0.193884,-1.69169 0.210713,-2.86947 z m 18.431777,-0.0889 c 2.53457,-7.51133 12.12923,-11.05739 19.71799,-7.28753 2.09378,1.04013 4.4485,3.29229 5.63776,5.39223 1.08254,1.91151 1.24994,1.60225 0.57893,-1.0695 -1.43722,-5.72252 -7.23327,-9.97279 -13.59983,-9.97279 -4.29683,0 -9.14682,2.52287 -11.51073,5.98763 -1.82566,2.67588 -2.58263,6.38385 -1.97319,9.66574 l 0.18027,0.97075 0.23092,-1.0921 c 0.12701,-0.60065 0.45905,-1.76814 0.73788,-2.59443 z"
       id="path826"
       inkscape:connector-curvature="0" />
  </g>
</svg>
